PathFileType	4	(X/Y/Z)	C:\Users\86182\Documents\cortex\Trimmed_M1_H8.trc
DataRate	CameraRate	NumFrames	NumMarkers	Units	OrigDataRate	OrigDataStartFrame	OrigNumFrames
100.00	100.00	       87	2	mm	100.00	1	       901
Frame#	Time	gripper			box			
		X1	Y1	Z1	X2	Y2	Z2	

1	0.000	225.07085	204.34619	183.90717	233.83624	202.96535	43.85905	
2	0.010	225.06674	204.34593	183.90988	233.85405	202.96312	43.85447	
3	0.020	225.06229	204.34604	183.91255	233.86774	202.96072	43.85209	
4	0.030	225.05891	204.34648	183.91432	233.87611	202.95853	43.85187	
5	0.040	225.05798	204.34706	183.91446	233.88011	202.95685	43.85279	
6	0.050	225.06003	204.34752	183.91275	233.88170	202.95592	43.85361	
7	0.060	225.06462	204.34767	183.90952	233.88266	202.95581	43.85333	
8	0.070	225.07065	204.34744	183.90546	233.88445	202.95641	43.85150	
9	0.080	225.07632	204.34703	183.90176	233.88797	202.95735	43.84827	
10	0.090	225.07979	204.34669	183.89955	233.89304	202.95825	43.84442	
11	0.100	225.08015	204.34665	183.89943	233.89835	202.95889	43.84087	
12	0.110	225.07788	204.34685	183.90106	233.90189	202.95937	43.83843	
13	0.120	225.07439	204.34714	183.90353	233.90137	202.95993	43.83774	
14	0.130	225.07086	204.34743	183.90604	233.89479	202.96083	43.83929	
15	0.140	225.06738	204.34779	183.90849	233.88171	202.96219	43.84314	
16	0.150	225.06335	204.34833	183.91127	233.86462	202.96373	43.84855	
17	0.160	225.05873	204.34895	183.91438	233.84850	202.96490	43.85410	
18	0.170	225.05449	204.34943	183.91725	233.83817	202.96516	43.85851	
19	0.180	225.05206	204.34943	183.91896	233.83601	202.96420	43.86112	
20	0.190	225.05261	204.34874	183.91876	233.84164	202.96217	43.86186	
21	0.200	225.05624	204.34752	183.91652	233.85225	202.95963	43.86118	
22	0.210	225.06201	204.34624	183.91275	233.86336	202.95721	43.86001	
23	0.220	225.06853	204.34534	183.90836	233.87119	202.95554	43.85918	
24	0.230	225.07460	204.34494	183.90419	233.87439	202.95473	43.85902	
25	0.240	225.07964	204.34488	183.90082	233.87364	202.95467	43.85947	
26	0.250	225.08328	204.34505	183.89851	233.87064	202.95500	43.86032	
27	0.260	225.08501	204.34547	183.89769	233.86743	202.95549	43.86101	
28	0.270	225.08421	204.34621	183.89867	233.86589	202.95604	43.86079	
29	0.280	225.08063	204.34729	183.90150	233.86678	202.95676	43.85918	
30	0.290	225.07433	204.34869	183.90607	233.86954	202.95773	43.85627	
31	0.300	225.06548	204.35045	183.91220	233.87288	202.95894	43.85268	
32	0.310	225.05447	204.35252	183.91977	233.87604	202.96017	43.84914	
33	0.320	225.04279	204.35475	183.92789	233.87904	202.96121	43.84600	
34	0.330	225.03279	204.35669	183.93489	233.88231	202.96201	43.84314	
35	0.340	225.02634	204.35796	183.93945	233.88620	202.96268	43.84018	
36	0.350	225.02405	204.35838	183.94099	233.89075	202.96333	43.83699	
37	0.360	225.02580	204.35799	183.93962	233.89545	202.96384	43.83393	
38	0.370	225.03114	204.35687	183.93570	233.89964	202.96402	43.83167	
39	0.380	225.03943	204.35521	183.92984	233.90289	202.96368	43.83073	
40	0.390	225.04980	204.35316	183.92276	233.90480	202.96269	43.83151	
41	0.400	225.06102	204.35098	183.91531	233.90450	202.96115	43.83424	
42	0.410	225.07132	204.34891	183.90857	233.90126	202.95940	43.83868	
43	0.420	225.07898	204.34723	183.90358	233.89569	202.95770	43.84411	
44	0.430	225.08330	204.34612	183.90076	233.88934	202.95616	43.84965	
45	0.440	225.08485	204.34547	183.89966	233.88321	202.95482	43.85476	
46	0.450	225.08481	204.34518	183.89966	233.87715	202.95383	43.85925	
47	0.460	225.08385	204.34512	183.90033	233.87108	202.95334	43.86287	
48	0.470	225.08244	204.34520	183.90128	233.86584	202.95335	43.86528	
49	0.480	225.08116	204.34531	183.90196	233.86256	202.95374	43.86618	
50	0.490	225.08061	204.34531	183.90192	233.86194	202.95435	43.86545	
51	0.500	225.08099	204.34509	183.90115	233.86436	202.95512	43.86302	
52	0.510	225.08180	204.34468	183.90018	233.86989	202.95602	43.85893	
53	0.520	225.08202	204.34428	183.89981	233.87746	202.95711	43.85358	
54	0.530	225.08061	204.34427	183.90076	233.88509	202.95837	43.84792	
55	0.540	225.07758	204.34486	183.90295	233.89095	202.95966	43.84303	
56	0.550	225.07391	204.34601	183.90572	233.89429	202.96065	43.83983	
57	0.560	225.07060	204.34738	183.90829	233.89516	202.96109	43.83867	
58	0.570	225.06822	204.34860	183.91023	233.89366	202.96121	43.83915	
59	0.580	225.06706	204.34941	183.91116	233.88950	202.96153	43.84056	
60	0.590	225.06720	204.34969	183.91101	233.88257	202.96246	43.84225	
61	0.600	225.06850	204.34940	183.90997	233.87427	202.96399	43.84356	
62	0.610	225.07051	204.34866	183.90845	233.86703	202.96576	43.84397	
63	0.620	225.07265	204.34764	183.90691	233.86267	202.96718	43.84366	
64	0.630	225.07439	204.34654	183.90573	233.86182	202.96762	43.84333	
65	0.640	225.07530	204.34560	183.90523	233.86409	202.96681	43.84361	
66	0.650	225.07526	204.34499	183.90549	233.86847	202.96492	43.84473	
67	0.660	225.07410	204.34480	183.90646	233.87378	202.96240	43.84649	
68	0.670	225.07132	204.34514	183.90845	233.87903	202.95975	43.84846	
69	0.680	225.06628	204.34605	183.91194	233.88383	202.95734	43.85026	
70	0.690	225.05913	204.34737	183.91704	233.88858	202.95528	43.85147	
71	0.700	225.05087	204.34883	183.92326	233.89366	202.95370	43.85175	
72	0.710	225.04329	204.35023	183.92941	233.89867	202.95274	43.85100	
73	0.720	225.03868	204.35130	183.93373	233.90288	202.95259	43.84930	
74	0.730	225.03844	204.35191	183.93503	233.90604	202.95334	43.84655	
75	0.740	225.04245	204.35202	183.93320	233.90862	202.95508	43.84245	
76	0.750	225.04958	204.35164	183.92880	233.91058	202.95775	43.83706	
77	0.760	225.05785	204.35092	183.92300	233.91063	202.96117	43.83132	
78	0.770	225.06471	204.35023	183.91757	233.90759	202.96489	43.82652	
79	0.780	225.06783	204.35001	183.91443	233.90199	202.96822	43.82357	
80	0.790	225.06601	204.35049	183.91463	233.89503	202.97047	43.82302	
81	0.800	225.05978	204.35165	183.91786	233.88687	202.97139	43.82531	
82	0.810	225.05098	204.35316	183.92284	233.87720	202.97096	43.83052	
83	0.820	225.04175	204.35457	183.92805	233.86688	202.96944	43.83791	
84	0.830	225.03403	204.35547	183.93231	233.85793	202.96712	43.84598	
85	0.840	225.02916	204.35564	183.93484	233.85222	202.96442	43.85314	
86	0.850	225.02779	204.35500	183.93529	233.85112	202.96172	43.85820	
87	0.860	225.03017	204.35361	183.93341	233.85497	202.95921	43.86060	
